{"title":"Cold Mountain.XviD.AC3.Swe_Sub.avi","uid":5389913,"size":1173260690,"categoryP":"video","categoryS":"movies","magnet":"?xt=urn:btih:1c547bf3c20d0bff42ab39810149adf4e626fd36&amp;dn=Cold+Mountain.XviD.AC3.Swe_Sub.avi&amp;tr=udp%3A%2F%2Ftracker.openbittorrent.com%3A80&amp;tr=udp%3A%2F%2Fopen.demonii.com%3A1337&amp;tr=udp%3A%2F%2Ftracker.coppersurfer.tk%3A6969&amp;tr=udp%3A%2F%2Fexodus.desync.com%3A6969","seeders":0,"leechers":1,"uploader":"Zen_Bud","files":-1,"time":1267030515,"description":"General\nComplete name                    : Cold Mountain.Swe_Sub.avi\nFormat                           : AVI\nFormat/Info                      : Audio Video Interleave\nFile size                        : 1.09 GiB\nDuration                         : 2h 28mn\nOverall bit rate                 : 1 057 Kbps\n\nVideo\nID                               : 0\nFormat                           : MPEG-4 Visual\nCodec ID                         : XVID\nCodec ID/Hint                    : XviD\nDuration                         : 2h 28mn\nBit rate                         : 598 Kbps\nWidth                            : 720 pixels\nHeight                           : 436 pixels\nDisplay aspect ratio             : 2.35:1\nFrame rate                       : 25.000 fps\nResolution                       : 8 bits\nColorimetry                      : 4:2:0\nScan type                        : Progressive\nBits/(Pixel*Frame)               : 0.076\nStream size                      : 633 MiB (57%)\nWriting library                  : XviD 1.1.2 (UTC 2006-11-01)\n\nAudio\nID                               : 1\nFormat                           : AC-3\nFormat/Info                      : Audio Coding 3\nCodec ID                         : 2000\nDuration                         : 2h 28mn\nBit rate mode                    : Constant\nBit rate                         : 448 Kbps\nChannel(s)                       : 6 channels\nChannel positions                : Front: L C R, Surround: L R, LFE\nSampling rate                    : 48.0 KHz\nStream size                      : 474 MiB (42%)\nAlignment                        : Aligned on interleaves\nInterleave, duration             : 32 ms (0.80 video frame)\n\n","torrent":{"xt":"urn:btih:1c547bf3c20d0bff42ab39810149adf4e626fd36","amp;dn":"Cold+Mountain.XviD.AC3.Swe_Sub.avi","amp;tr":["udp%3A%2F%2Ftracker.openbittorrent.com%3A80","udp%3A%2F%2Fopen.demonii.com%3A1337","udp%3A%2F%2Ftracker.coppersurfer.tk%3A6969","udp%3A%2F%2Fexodus.desync.com%3A6969"],"infoHash":"1c547bf3c20d0bff42ab39810149adf4e626fd36","infoHashBuffer":{"type":"Buffer","data":[28,84,123,243,194,13,11,255,66,171,57,129,1,73,173,244,230,38,253,54]},"announce":[],"urlList":[]}}